<svg width="270" height="97" viewBox="0 0 270 97" fill="none" xmlns="http://www.w3.org/2000/svg">
<path fill-rule="evenodd" clip-rule="evenodd" d="M3.60571 77.335C15.6579 91.5798 35.404 96.7785 53.1722 90.3847C63.1752 85.8075 71.7646 78.6054 78.0096 69.5589C84.3979 60.7801 92.2627 53.1617 101.249 47.0475C118.032 36.8626 138.318 34.3309 156.907 40.1012C167.52 43.5016 176.438 50.5906 187.078 53.8937C196.516 56.6377 206.587 56.5675 216.057 53.6916C237.19 46.4291 254.225 30.4078 262.73 9.79547C263.917 7.24861 264.971 4.63969 265.964 2.01437L268.384 4.47954C262.407 6.6709 256.293 8.45937 250.083 9.83277C249.333 9.90061 248.652 9.41768 248.473 8.69204C248.294 7.96641 248.67 7.21178 249.362 6.90956C255.113 4.54444 261.013 2.56558 267.02 0.986357C267.727 0.729586 268.513 0.904064 269.034 1.43314C269.555 1.96222 269.716 2.74909 269.445 3.44809C261.927 25.3488 246.181 43.5794 225.546 54.2761C216.227 58.5441 205.996 60.3761 195.828 59.5974C190.652 59.1311 185.589 57.8712 180.817 55.8623C175.341 53.5689 170.254 50.5048 164.981 47.8192C156.106 43.1879 146.21 40.7827 136.139 40.8095C126.254 40.891 116.489 43.2059 107.578 47.58C103.121 49.7788 98.9495 52.5204 95.1614 55.7411C90.7636 59.672 86.7418 64.0022 83.1493 68.6742C76.6171 78.2109 68.0599 86.2105 58.0952 92.096C40.5463 100.229 19.9588 97.2806 5.67267 84.5877C3.93651 82.989 2.35608 81.2304 0.951966 79.3347C0.447592 78.6104 0.613682 77.6111 1.32788 77.0729C2.04208 76.5347 3.04849 76.6505 3.60571 77.335Z" fill="#E7C4B2"/>
</svg>
