<svg width="223" height="138" viewBox="0 0 223 138" fill="none" xmlns="http://www.w3.org/2000/svg">
<g filter="url(#filter0_d_0_1350)">
<path fill-rule="evenodd" clip-rule="evenodd" d="M206.706 19.3484C196.882 5.26652 179.96 -2.03424 163.006 0.495024C158.828 1.04195 154.748 2.18092 150.89 3.87782C146.752 5.8585 142.84 8.28329 139.224 11.1097C135.44 14.0813 131.432 16.7545 127.236 19.1054C122.86 21.4225 117.933 22.4913 112.993 22.1955C102.6 20.3718 92.5395 16.9909 83.1499 12.1662C73.1559 8.20203 62.3002 6.93307 51.6646 8.48577C42.0201 9.93633 33.1596 14.6475 26.5516 21.8384C20.3054 28.5267 16.8651 37.3678 16.9437 46.5299C17.7373 52.1914 18.2162 57.8927 18.3785 63.6075C17.706 68.2908 15.7597 72.6979 12.7533 76.3451C9.91175 79.9145 7.50206 83.8089 5.5746 87.9468C3.94281 92.0769 3.5692 96.5994 4.50101 100.942C6.84891 109.791 12.5227 117.385 20.3327 122.132C29.021 127.543 39.1053 130.272 49.3294 129.979C60.0375 129.785 70.5286 126.919 79.8549 121.641C88.187 115.919 97.4903 111.769 107.308 109.394C118.054 109.259 128.763 110.679 139.105 113.61C144.23 114.544 149.47 114.656 154.63 113.943C158.889 113.231 162.997 111.802 166.781 109.717C174.55 105.487 180.782 98.8965 184.582 90.8931C186.448 86.9171 187.618 82.6486 188.04 78.2746C187.604 73.6131 188.999 68.9652 191.928 65.3188C195.118 62.9509 198.696 61.1598 202.501 60.0263C206.646 58.6039 210.392 56.2075 213.425 53.0375C218.053 47.8298 219.952 40.7343 218.545 33.9034C217.139 27.0724 212.593 21.3108 206.286 18.3663C205.331 17.8438 204.135 18.1593 203.56 19.0855C203.013 20.0372 203.331 21.2526 204.272 21.8136C212.249 25.3843 216.59 34.1155 214.632 42.651C213.584 46.9105 211.061 50.6583 207.513 53.226C204.089 55.2559 200.452 56.8994 196.668 58.1266C192.879 59.3845 189.532 61.7091 187.026 64.8228C184.802 69.1439 183.725 73.966 183.899 78.8252C182.755 87.0117 178.843 94.5564 172.817 100.198C166.974 105.948 159.329 109.496 151.177 110.243C140.821 109.885 130.538 108.369 120.518 105.724C115.391 104.824 110.151 104.774 105.008 105.575C100.244 106.536 95.6455 108.189 91.3576 110.481C82.9439 115.681 74.0763 120.103 64.8643 123.694C46.1199 130.294 25.257 124.662 12.3525 109.518C9.90584 106.234 8.3158 102.39 7.72672 98.3333C7.28232 94.1787 8.16402 89.9898 10.2449 86.3695C12.4119 82.4361 15.3408 79.0037 17.7205 75.2092C20.3316 71.2717 21.7666 66.6684 21.8565 61.9409C21.8812 56.4749 20.3327 51.1328 20.3179 45.6668C20.3303 41.3997 21.2654 37.186 23.0587 33.3161C26.7789 25.3955 33.1613 19.0405 41.0871 15.3655C50.4798 11.2994 60.9056 10.2796 70.9051 12.4489C80.8557 15.2392 90.5954 18.7367 100.05 22.9147C104.749 24.6779 109.709 25.6435 114.724 25.7718C119.567 25.7254 124.329 24.5233 128.617 22.265C136.755 18.1034 143.206 11.2734 151.469 7.31518C166.406 0.76559 183.703 2.7819 196.742 12.5927C199.822 14.9325 202.625 17.6167 205.098 20.5934C205.467 20.941 206.032 20.9688 206.432 20.6589C206.833 20.349 206.949 19.7934 206.706 19.3484Z" fill="#E7C4B2"/>
</g>
<defs>
<filter id="filter0_d_0_1350" x="0" y="0.000244141" width="223" height="138" filterUnits="userSpaceOnUse" color-interpolation-filters="sRGB">
<feFlood flood-opacity="0" result="BackgroundImageFix"/>
<feColorMatrix in="SourceAlpha" type="matrix" values="0 0 0 0 0 0 0 0 0 0 0 0 0 0 0 0 0 0 127 0" result="hardAlpha"/>
<feOffset dy="4"/>
<feGaussianBlur stdDeviation="2"/>
<feComposite in2="hardAlpha" operator="out"/>
<feColorMatrix type="matrix" values="0 0 0 0 0 0 0 0 0 0 0 0 0 0 0 0 0 0 0.25 0"/>
<feBlend mode="normal" in2="BackgroundImageFix" result="effect1_dropShadow_0_1350"/>
<feBlend mode="normal" in="SourceGraphic" in2="effect1_dropShadow_0_1350" result="shape"/>
</filter>
</defs>
</svg>
